<svg version="1.1" viewBox="0 0 512 512" xmlns="http://www.w3.org/2000/svg">
<path d="m334.82 63.736c-107.7 0.74813 13.662-0.45936-183.51 0.13088-23.584-0.049082-39.298 9.1808-53.305 25.133-14.993 17.497-15.461 40.156-15.24 62.07-1.1466 19.705 3.1443 38.044 15.24 53.93 12.629 14.706 18.636 17.075 24 20-28.341 7.8187-39.501 33.273-39.586 69.643-1.0539 53.374 21.599 87.477 61.416 89.768 17.211-0.0617 49.959-0.34347 67.17-0.41013v64h90c0.11074-25.098 0.22911-50.195 0.29297-75.293 0.40324-14.983 1.4216-31.696-7.3483-46.885-9.6077-16.641-15.945-17.822-15.945-17.822 21.289 0.11383 42.578 0.22945 63.867 0.29298 35.702 0 59.44-9.5871 77.133-33.293 9.9665-17.263 10.658-28.066 10.658-57.144-0.28217-66.016-54.032-77.196-66.014-77.196 9.7306-5.618 13.701-16.558 13.701-32.185 0-25.862-17.922-44.577-42.526-44.739zm-173.21 12.76c56.504 0.2877 113.01-0.07338 169.52 0.23636 16.948-0.071813 33.871 8.7955 33.871 31.268 0 13.052-0.41044 33.158-40.008 32.752-51.343-2e-3 -102.69-0.18977-154.03-0.1091-3.5602-9e-3 -5.9727-0.36123-8.877 1.752-1.4499 2.1488-1.4507 3.3476-1.084 10.804 66.01 0 130.67 0.36138 195.55 0.64894 29.932-0.0215 60.062 23.015 59.766 65.935 0.75954 20.337-1.7751 39.782-15.5 55.779-16.752 15.834-34.381 18.743-56.564 18.713-57.503 0.326-115-9e-3 -172.5 0.33992-3.5708-0.0296-7.462-0.47555-9.7188 1.7812-1.5456 1.5456-1.0332 4.659-1.0332 10.965 21.905 0 51.221 0.18051 76.668 0.42394 8.1444-0.21152 33.165 3.4316 42.702 20.436 6.01 10.875 7.0468 24.629 6.9463 36.764-0.11714 23.005-0.18297 46.011-0.31641 69.016h-63c-0.82118-19.974-1-38.219-1-58.219 0-3.0304-1.1348-4.0833-5.43-4.0833-35.383 0-83.276 1.1056-89.944-5.0099-22.615-13.056-31.541-29.829-31.501-71.307 0-18.525 2.1436-66.184 72.217-66.135 29.456 0 152.35-0.23737 165.82-0.23737 0 0 2.8449-11.056-5.4102-11.148-54.725-0.1525-109.45-0.21253-164.18-0.4435-19.329 0.03703-35.396-2.3858-50.572-15.416-16.011-15.484-18.332-36.563-18.316-57.559-0.059419-21.286 0.65736-41.361 29.316-60.441 12.073-6.3042 23.266-7.5864 36.613-7.5039z" fill="#fff"/>
</svg>
