<svg xmlns="http://www.w3.org/2000/svg" viewBox="0 0 640 640">
  <path d="m256,64c-8.8,0 -16,7.2 -16,16c0,8.8 7.2,16 16,16l48,0l0,48c0,0.2 0,0.4 0,0.6c-107.4,8.2 -192,97.9 -192,207.4c0,114.9 93.1,208 208,208c114.9,0 208,-93.1 208,-208c0,-43.5 -13.3,-83.8 -36.2,-117.2l31.5,-31.5c6.2,-6.2 6.2,-16.4 0,-22.6c-6.2,-6.2 -16.4,-6.2 -22.6,0l-29,29c-34.5,-36.8 -82.3,-61 -135.7,-65.1c0,-0.2 0,-0.4 0,-0.6l0,-48l48,0c8.8,0 16,-7.2 16,-16c0,-8.8 -7.2,-16 -16,-16l-128,0zm64,464c-97.2,0 -176,-78.8 -176,-176c0,-97.2 78.8,-176 176,-176c97.2,0 176,78.8 176,176c0,97.2 -78.8,176 -176,176z" fill="#ffffff"/>
</svg>